<svg width="440" height="88" viewBox="0 0 440 88" fill="none" xmlns="http://www.w3.org/2000/svg">
<path d="M24.904 86H0.84V0.239998H50.888C73.544 0.239998 85.448 9.712 85.448 26.48C85.448 40.048 78.664 48.112 62.28 50.16V51.44C71.112 53.744 73.928 57.968 77.128 64.496L87.752 86H59.976L49.736 65.008C46.664 58.608 44.104 56.816 34.76 56.816H24.904V86ZM24.904 21.872V38.896H50.632C57.672 38.896 60.232 37.616 60.232 30.32C60.232 23.536 57.672 21.872 50.632 21.872H24.904ZM127.558 87.28C105.67 87.28 90.31 77.936 90.31 53.744C90.31 32.752 105.542 20.208 127.046 20.208C149.318 20.208 163.526 31.344 163.526 52.08C163.526 54.256 163.398 55.92 163.142 58.224H112.582C112.966 66.032 116.422 68.208 126.662 68.208C136.39 68.208 138.95 66.544 138.95 62.704V61.296H163.014V62.832C163.014 77.168 149.318 87.28 127.558 87.28ZM126.534 38.64C117.702 38.64 113.99 40.56 112.966 46.064H140.23C139.334 40.56 135.494 38.64 126.534 38.64ZM190.829 87.28C176.237 87.28 168.045 80.624 168.045 69.616C168.045 60.528 174.317 54 188.909 52.592L215.149 50.032V48.752C215.149 42.224 212.333 41.2 203.757 41.2C195.821 41.2 193.389 42.736 193.389 48.112V48.624H169.325V48.368C169.325 31.216 183.661 20.208 205.549 20.208C228.077 20.208 238.957 31.216 238.957 49.264V86H216.429V72.432H215.149C212.717 81.52 204.781 87.28 190.829 87.28ZM192.237 68.08C192.237 70.128 194.285 70.512 197.997 70.512C209.645 70.512 214.381 69.104 215.021 63.344L195.309 65.648C193.133 65.904 192.237 66.672 192.237 68.08ZM282.314 87.28C259.402 87.28 244.81 74.608 244.81 53.744C244.81 32.752 259.402 20.208 282.314 20.208C304.33 20.208 318.41 31.472 318.41 48.752V50.8H294.474V49.776C294.474 43.12 289.61 41.712 281.802 41.712C272.97 41.712 268.746 43.632 268.746 53.744C268.746 63.728 272.97 65.648 281.802 65.648C289.61 65.648 294.474 64.368 294.474 57.712V56.56H318.41V58.736C318.41 75.888 304.33 87.28 282.314 87.28ZM348.904 86H324.84V0.239998H348.904V41.072H350.184C352.232 30.192 359.4 20.208 375.912 20.208C393.064 20.208 401.256 31.088 401.256 45.424V86H377.192V53.488C377.192 44.528 373.736 41.712 362.728 41.712C351.592 41.712 348.904 44.4 348.904 52.72V86ZM439.697 86H408.465V61.424H439.697V86Z" fill="black"/>
</svg>
